<mxfile host="app.diagrams.net" modified="2021-11-19T05:41:02.963Z" agent="5.0 (Macintosh; Intel Mac OS X 10_15_7) AppleWebKit/605.1.15 (KHTML, like Gecko) Version/15.1 Safari/605.1.15" etag="aWDN_W-jme_3MSFhiqvS" version="15.8.2" type="github">
  <diagram id="TjUcnRpzgRecOWL7eHP6" name="Page-1">
    <mxGraphModel dx="1990" dy="2404" grid="1" gridSize="10" guides="1" tooltips="1" connect="1" arrows="1" fold="1" page="1" pageScale="1" pageWidth="827" pageHeight="1169" math="0" shadow="0">
      <root>
        <mxCell id="0" />
        <mxCell id="1" parent="0" />
        <mxCell id="TnWBGNj776M6VLE6dhnm-154" style="edgeStyle=orthogonalEdgeStyle;rounded=0;orthogonalLoop=1;jettySize=auto;html=1;exitX=0;exitY=0.5;exitDx=0;exitDy=0;fontSize=14;endArrow=classic;endFill=1;strokeColor=#FF00FF;dashed=1;strokeWidth=3;" edge="1" parent="1" source="AYXUDMK8WHhuibapLCR6-12">
          <mxGeometry relative="1" as="geometry">
            <mxPoint x="210" y="1520" as="targetPoint" />
          </mxGeometry>
        </mxCell>
        <mxCell id="TnWBGNj776M6VLE6dhnm-58" style="edgeStyle=orthogonalEdgeStyle;rounded=0;orthogonalLoop=1;jettySize=auto;html=1;exitX=1;exitY=0.5;exitDx=0;exitDy=0;entryX=0;entryY=0.5;entryDx=0;entryDy=0;fontSize=14;endArrow=classic;endFill=1;strokeColor=#FF00FF;dashed=1;strokeWidth=3;" edge="1" parent="1" source="AYXUDMK8WHhuibapLCR6-14" target="TnWBGNj776M6VLE6dhnm-3">
          <mxGeometry relative="1" as="geometry" />
        </mxCell>
        <mxCell id="TnWBGNj776M6VLE6dhnm-65" value="" style="group" vertex="1" connectable="0" parent="1">
          <mxGeometry x="740" y="140" width="840" height="1180" as="geometry" />
        </mxCell>
        <mxCell id="TnWBGNj776M6VLE6dhnm-3" value="execute()" style="rounded=1;whiteSpace=wrap;html=1;" vertex="1" parent="TnWBGNj776M6VLE6dhnm-65">
          <mxGeometry width="120" height="60" as="geometry" />
        </mxCell>
        <mxCell id="TnWBGNj776M6VLE6dhnm-4" value="run_command()" style="rounded=1;whiteSpace=wrap;html=1;" vertex="1" parent="TnWBGNj776M6VLE6dhnm-65">
          <mxGeometry y="120" width="120" height="60" as="geometry" />
        </mxCell>
        <mxCell id="TnWBGNj776M6VLE6dhnm-10" value="" style="edgeStyle=orthogonalEdgeStyle;rounded=0;orthogonalLoop=1;jettySize=auto;html=1;" edge="1" parent="TnWBGNj776M6VLE6dhnm-65" source="TnWBGNj776M6VLE6dhnm-3" target="TnWBGNj776M6VLE6dhnm-4">
          <mxGeometry relative="1" as="geometry" />
        </mxCell>
        <mxCell id="TnWBGNj776M6VLE6dhnm-5" value="시그널 리셋" style="rounded=1;whiteSpace=wrap;html=1;" vertex="1" parent="TnWBGNj776M6VLE6dhnm-65">
          <mxGeometry y="250" width="120" height="60" as="geometry" />
        </mxCell>
        <mxCell id="TnWBGNj776M6VLE6dhnm-11" value="" style="edgeStyle=orthogonalEdgeStyle;rounded=0;orthogonalLoop=1;jettySize=auto;html=1;" edge="1" parent="TnWBGNj776M6VLE6dhnm-65" source="TnWBGNj776M6VLE6dhnm-4" target="TnWBGNj776M6VLE6dhnm-5">
          <mxGeometry relative="1" as="geometry" />
        </mxCell>
        <mxCell id="TnWBGNj776M6VLE6dhnm-15" value="child" style="rounded=1;whiteSpace=wrap;html=1;" vertex="1" parent="TnWBGNj776M6VLE6dhnm-65">
          <mxGeometry x="200" y="395" width="120" height="60" as="geometry" />
        </mxCell>
        <mxCell id="TnWBGNj776M6VLE6dhnm-23" value="" style="edgeStyle=orthogonalEdgeStyle;rounded=0;orthogonalLoop=1;jettySize=auto;html=1;" edge="1" parent="TnWBGNj776M6VLE6dhnm-65" source="TnWBGNj776M6VLE6dhnm-16" target="TnWBGNj776M6VLE6dhnm-15">
          <mxGeometry relative="1" as="geometry" />
        </mxCell>
        <mxCell id="TnWBGNj776M6VLE6dhnm-24" value="pid == 0" style="edgeLabel;html=1;align=center;verticalAlign=middle;resizable=0;points=[];" vertex="1" connectable="0" parent="TnWBGNj776M6VLE6dhnm-23">
          <mxGeometry x="-0.1529" y="-3" relative="1" as="geometry">
            <mxPoint as="offset" />
          </mxGeometry>
        </mxCell>
        <mxCell id="TnWBGNj776M6VLE6dhnm-16" value="pid = fork()" style="rhombus;whiteSpace=wrap;html=1;" vertex="1" parent="TnWBGNj776M6VLE6dhnm-65">
          <mxGeometry x="5" y="380" width="110" height="90" as="geometry" />
        </mxCell>
        <mxCell id="TnWBGNj776M6VLE6dhnm-17" value="" style="edgeStyle=orthogonalEdgeStyle;rounded=0;orthogonalLoop=1;jettySize=auto;html=1;" edge="1" parent="TnWBGNj776M6VLE6dhnm-65" source="TnWBGNj776M6VLE6dhnm-5" target="TnWBGNj776M6VLE6dhnm-16">
          <mxGeometry relative="1" as="geometry" />
        </mxCell>
        <mxCell id="TnWBGNj776M6VLE6dhnm-20" value="parent" style="rounded=1;whiteSpace=wrap;html=1;" vertex="1" parent="TnWBGNj776M6VLE6dhnm-65">
          <mxGeometry y="735" width="120" height="60" as="geometry" />
        </mxCell>
        <mxCell id="TnWBGNj776M6VLE6dhnm-21" value="" style="edgeStyle=orthogonalEdgeStyle;rounded=0;orthogonalLoop=1;jettySize=auto;html=1;" edge="1" parent="TnWBGNj776M6VLE6dhnm-65" source="TnWBGNj776M6VLE6dhnm-16" target="TnWBGNj776M6VLE6dhnm-20">
          <mxGeometry relative="1" as="geometry" />
        </mxCell>
        <mxCell id="TnWBGNj776M6VLE6dhnm-22" value="&lt;font style=&quot;font-size: 14px&quot;&gt;pid &amp;gt; 0&lt;/font&gt;" style="edgeLabel;html=1;align=center;verticalAlign=middle;resizable=0;points=[];" vertex="1" connectable="0" parent="TnWBGNj776M6VLE6dhnm-21">
          <mxGeometry x="-0.25" y="-4" relative="1" as="geometry">
            <mxPoint as="offset" />
          </mxGeometry>
        </mxCell>
        <mxCell id="TnWBGNj776M6VLE6dhnm-26" value="is_builtin" style="rhombus;whiteSpace=wrap;html=1;" vertex="1" parent="TnWBGNj776M6VLE6dhnm-65">
          <mxGeometry x="400" y="380" width="120" height="90" as="geometry" />
        </mxCell>
        <mxCell id="TnWBGNj776M6VLE6dhnm-27" value="" style="edgeStyle=orthogonalEdgeStyle;rounded=0;orthogonalLoop=1;jettySize=auto;html=1;" edge="1" parent="TnWBGNj776M6VLE6dhnm-65" source="TnWBGNj776M6VLE6dhnm-15" target="TnWBGNj776M6VLE6dhnm-26">
          <mxGeometry relative="1" as="geometry" />
        </mxCell>
        <mxCell id="TnWBGNj776M6VLE6dhnm-34" style="edgeStyle=orthogonalEdgeStyle;rounded=0;orthogonalLoop=1;jettySize=auto;html=1;exitX=0.5;exitY=1;exitDx=0;exitDy=0;entryX=1;entryY=0.5;entryDx=0;entryDy=0;fontSize=14;" edge="1" parent="TnWBGNj776M6VLE6dhnm-65" source="TnWBGNj776M6VLE6dhnm-28" target="TnWBGNj776M6VLE6dhnm-20">
          <mxGeometry relative="1" as="geometry" />
        </mxCell>
        <mxCell id="TnWBGNj776M6VLE6dhnm-39" value="execute 종료 후" style="edgeLabel;html=1;align=center;verticalAlign=middle;resizable=0;points=[];fontSize=14;" vertex="1" connectable="0" parent="TnWBGNj776M6VLE6dhnm-34">
          <mxGeometry x="-0.7506" y="3" relative="1" as="geometry">
            <mxPoint as="offset" />
          </mxGeometry>
        </mxCell>
        <mxCell id="TnWBGNj776M6VLE6dhnm-28" value="execve" style="rounded=1;whiteSpace=wrap;html=1;" vertex="1" parent="TnWBGNj776M6VLE6dhnm-65">
          <mxGeometry x="720" y="395" width="120" height="60" as="geometry" />
        </mxCell>
        <mxCell id="TnWBGNj776M6VLE6dhnm-29" value="" style="edgeStyle=orthogonalEdgeStyle;rounded=0;orthogonalLoop=1;jettySize=auto;html=1;" edge="1" parent="TnWBGNj776M6VLE6dhnm-65" source="TnWBGNj776M6VLE6dhnm-26" target="TnWBGNj776M6VLE6dhnm-28">
          <mxGeometry relative="1" as="geometry" />
        </mxCell>
        <mxCell id="TnWBGNj776M6VLE6dhnm-30" value="NO" style="edgeLabel;html=1;align=center;verticalAlign=middle;resizable=0;points=[];" vertex="1" connectable="0" parent="TnWBGNj776M6VLE6dhnm-29">
          <mxGeometry x="-0.2" y="3" relative="1" as="geometry">
            <mxPoint x="1" y="1" as="offset" />
          </mxGeometry>
        </mxCell>
        <mxCell id="TnWBGNj776M6VLE6dhnm-38" style="edgeStyle=orthogonalEdgeStyle;rounded=0;orthogonalLoop=1;jettySize=auto;html=1;fontSize=14;strokeColor=default;endArrow=none;endFill=0;" edge="1" parent="TnWBGNj776M6VLE6dhnm-65" source="TnWBGNj776M6VLE6dhnm-31">
          <mxGeometry relative="1" as="geometry">
            <mxPoint x="460" y="765" as="targetPoint" />
          </mxGeometry>
        </mxCell>
        <mxCell id="TnWBGNj776M6VLE6dhnm-31" value="builtin 실행" style="rounded=1;whiteSpace=wrap;html=1;" vertex="1" parent="TnWBGNj776M6VLE6dhnm-65">
          <mxGeometry x="400" y="630" width="120" height="60" as="geometry" />
        </mxCell>
        <mxCell id="TnWBGNj776M6VLE6dhnm-41" value="builtin 함수 실행" style="rounded=1;whiteSpace=wrap;html=1;fontSize=14;" vertex="1" parent="TnWBGNj776M6VLE6dhnm-65">
          <mxGeometry y="970" width="120" height="60" as="geometry" />
        </mxCell>
        <mxCell id="TnWBGNj776M6VLE6dhnm-47" value="" style="edgeStyle=orthogonalEdgeStyle;rounded=0;orthogonalLoop=1;jettySize=auto;html=1;fontSize=14;endArrow=none;endFill=0;strokeColor=default;" edge="1" parent="TnWBGNj776M6VLE6dhnm-65" source="TnWBGNj776M6VLE6dhnm-45" target="TnWBGNj776M6VLE6dhnm-31">
          <mxGeometry relative="1" as="geometry" />
        </mxCell>
        <mxCell id="TnWBGNj776M6VLE6dhnm-49" value="YES" style="edgeLabel;html=1;align=center;verticalAlign=middle;resizable=0;points=[];fontSize=14;" vertex="1" connectable="0" parent="TnWBGNj776M6VLE6dhnm-47">
          <mxGeometry x="-0.2" y="-1" relative="1" as="geometry">
            <mxPoint as="offset" />
          </mxGeometry>
        </mxCell>
        <mxCell id="TnWBGNj776M6VLE6dhnm-48" style="edgeStyle=orthogonalEdgeStyle;rounded=0;orthogonalLoop=1;jettySize=auto;html=1;exitX=0;exitY=0.5;exitDx=0;exitDy=0;fontSize=14;endArrow=none;endFill=0;strokeColor=default;" edge="1" parent="TnWBGNj776M6VLE6dhnm-65" source="TnWBGNj776M6VLE6dhnm-45">
          <mxGeometry relative="1" as="geometry">
            <mxPoint x="350" y="765" as="targetPoint" />
          </mxGeometry>
        </mxCell>
        <mxCell id="TnWBGNj776M6VLE6dhnm-50" value="NO" style="edgeLabel;html=1;align=center;verticalAlign=middle;resizable=0;points=[];fontSize=14;" vertex="1" connectable="0" parent="TnWBGNj776M6VLE6dhnm-48">
          <mxGeometry x="0.1321" y="-2" relative="1" as="geometry">
            <mxPoint as="offset" />
          </mxGeometry>
        </mxCell>
        <mxCell id="TnWBGNj776M6VLE6dhnm-45" value="condition" style="rhombus;whiteSpace=wrap;html=1;fontSize=14;" vertex="1" parent="TnWBGNj776M6VLE6dhnm-65">
          <mxGeometry x="400" y="510" width="120" height="80" as="geometry" />
        </mxCell>
        <mxCell id="TnWBGNj776M6VLE6dhnm-46" value="" style="edgeStyle=orthogonalEdgeStyle;rounded=0;orthogonalLoop=1;jettySize=auto;html=1;fontSize=14;endArrow=none;endFill=0;strokeColor=default;" edge="1" parent="TnWBGNj776M6VLE6dhnm-65" source="TnWBGNj776M6VLE6dhnm-26" target="TnWBGNj776M6VLE6dhnm-45">
          <mxGeometry relative="1" as="geometry" />
        </mxCell>
        <mxCell id="TnWBGNj776M6VLE6dhnm-53" value="YES" style="edgeStyle=orthogonalEdgeStyle;rounded=0;orthogonalLoop=1;jettySize=auto;html=1;fontSize=14;endArrow=none;endFill=0;strokeColor=default;" edge="1" parent="TnWBGNj776M6VLE6dhnm-65" source="TnWBGNj776M6VLE6dhnm-51" target="TnWBGNj776M6VLE6dhnm-41">
          <mxGeometry relative="1" as="geometry" />
        </mxCell>
        <mxCell id="TnWBGNj776M6VLE6dhnm-51" value="condition" style="rhombus;whiteSpace=wrap;html=1;fontSize=14;" vertex="1" parent="TnWBGNj776M6VLE6dhnm-65">
          <mxGeometry y="840" width="120" height="80" as="geometry" />
        </mxCell>
        <mxCell id="TnWBGNj776M6VLE6dhnm-52" value="" style="edgeStyle=orthogonalEdgeStyle;rounded=0;orthogonalLoop=1;jettySize=auto;html=1;fontSize=14;endArrow=none;endFill=0;strokeColor=default;" edge="1" parent="TnWBGNj776M6VLE6dhnm-65" source="TnWBGNj776M6VLE6dhnm-20" target="TnWBGNj776M6VLE6dhnm-51">
          <mxGeometry relative="1" as="geometry" />
        </mxCell>
        <mxCell id="TnWBGNj776M6VLE6dhnm-61" value="execute() 끝" style="ellipse;whiteSpace=wrap;html=1;fontSize=14;" vertex="1" parent="TnWBGNj776M6VLE6dhnm-65">
          <mxGeometry y="1100" width="120" height="80" as="geometry" />
        </mxCell>
        <mxCell id="TnWBGNj776M6VLE6dhnm-62" value="" style="edgeStyle=orthogonalEdgeStyle;rounded=0;orthogonalLoop=1;jettySize=auto;html=1;fontSize=14;endArrow=classic;endFill=1;strokeColor=default;" edge="1" parent="TnWBGNj776M6VLE6dhnm-65" source="TnWBGNj776M6VLE6dhnm-41" target="TnWBGNj776M6VLE6dhnm-61">
          <mxGeometry relative="1" as="geometry" />
        </mxCell>
        <mxCell id="TnWBGNj776M6VLE6dhnm-63" style="edgeStyle=orthogonalEdgeStyle;rounded=0;orthogonalLoop=1;jettySize=auto;html=1;exitX=1;exitY=0.5;exitDx=0;exitDy=0;entryX=1;entryY=0.5;entryDx=0;entryDy=0;fontSize=14;endArrow=classic;endFill=1;strokeColor=default;" edge="1" parent="TnWBGNj776M6VLE6dhnm-65" source="TnWBGNj776M6VLE6dhnm-51" target="TnWBGNj776M6VLE6dhnm-61">
          <mxGeometry relative="1" as="geometry">
            <Array as="points">
              <mxPoint x="180" y="880" />
              <mxPoint x="180" y="1140" />
            </Array>
          </mxGeometry>
        </mxCell>
        <mxCell id="TnWBGNj776M6VLE6dhnm-64" value="NO" style="edgeLabel;html=1;align=center;verticalAlign=middle;resizable=0;points=[];fontSize=14;" vertex="1" connectable="0" parent="TnWBGNj776M6VLE6dhnm-63">
          <mxGeometry x="-0.1882" y="-1" relative="1" as="geometry">
            <mxPoint as="offset" />
          </mxGeometry>
        </mxCell>
        <mxCell id="TnWBGNj776M6VLE6dhnm-155" value="" style="group" vertex="1" connectable="0" parent="1">
          <mxGeometry x="150" y="1520" width="960" height="1240" as="geometry" />
        </mxCell>
        <mxCell id="TnWBGNj776M6VLE6dhnm-119" value="" style="group" vertex="1" connectable="0" parent="TnWBGNj776M6VLE6dhnm-155">
          <mxGeometry x="186" y="130" width="380" height="1110" as="geometry" />
        </mxCell>
        <mxCell id="TnWBGNj776M6VLE6dhnm-74" value="토큰화1" style="rounded=1;whiteSpace=wrap;html=1;fontSize=14;" vertex="1" parent="TnWBGNj776M6VLE6dhnm-119">
          <mxGeometry x="19.75" width="120" height="60" as="geometry" />
        </mxCell>
        <mxCell id="TnWBGNj776M6VLE6dhnm-75" value="line[I] != &#39;\0&#39;" style="rhombus;whiteSpace=wrap;html=1;fontSize=14;" vertex="1" parent="TnWBGNj776M6VLE6dhnm-119">
          <mxGeometry x="3.25" y="115" width="153" height="90" as="geometry" />
        </mxCell>
        <mxCell id="TnWBGNj776M6VLE6dhnm-83" value="" style="edgeStyle=orthogonalEdgeStyle;rounded=0;orthogonalLoop=1;jettySize=auto;html=1;fontSize=14;endArrow=classic;endFill=1;strokeColor=default;" edge="1" parent="TnWBGNj776M6VLE6dhnm-119" source="TnWBGNj776M6VLE6dhnm-74" target="TnWBGNj776M6VLE6dhnm-75">
          <mxGeometry relative="1" as="geometry" />
        </mxCell>
        <mxCell id="TnWBGNj776M6VLE6dhnm-77" value="line[I] == 공백" style="rhombus;whiteSpace=wrap;html=1;fontSize=14;" vertex="1" parent="TnWBGNj776M6VLE6dhnm-119">
          <mxGeometry y="260" width="159.5" height="90" as="geometry" />
        </mxCell>
        <mxCell id="TnWBGNj776M6VLE6dhnm-82" value="" style="edgeStyle=orthogonalEdgeStyle;rounded=0;orthogonalLoop=1;jettySize=auto;html=1;fontSize=14;endArrow=classic;endFill=1;strokeColor=default;" edge="1" parent="TnWBGNj776M6VLE6dhnm-119" source="TnWBGNj776M6VLE6dhnm-75" target="TnWBGNj776M6VLE6dhnm-77">
          <mxGeometry relative="1" as="geometry" />
        </mxCell>
        <mxCell id="TnWBGNj776M6VLE6dhnm-116" value="NO" style="edgeLabel;html=1;align=center;verticalAlign=middle;resizable=0;points=[];fontSize=14;" vertex="1" connectable="0" parent="TnWBGNj776M6VLE6dhnm-82">
          <mxGeometry x="-0.2023" y="1" relative="1" as="geometry">
            <mxPoint as="offset" />
          </mxGeometry>
        </mxCell>
        <mxCell id="TnWBGNj776M6VLE6dhnm-80" style="edgeStyle=orthogonalEdgeStyle;rounded=0;orthogonalLoop=1;jettySize=auto;html=1;exitX=1;exitY=0;exitDx=0;exitDy=0;entryX=1;entryY=0.5;entryDx=0;entryDy=0;fontSize=14;endArrow=classic;endFill=1;strokeColor=default;" edge="1" parent="TnWBGNj776M6VLE6dhnm-119" source="TnWBGNj776M6VLE6dhnm-77" target="TnWBGNj776M6VLE6dhnm-77">
          <mxGeometry relative="1" as="geometry">
            <Array as="points">
              <mxPoint x="119.75" y="270" />
              <mxPoint x="202.75" y="270" />
              <mxPoint x="202.75" y="305" />
            </Array>
          </mxGeometry>
        </mxCell>
        <mxCell id="TnWBGNj776M6VLE6dhnm-81" value="YES" style="edgeLabel;html=1;align=center;verticalAlign=middle;resizable=0;points=[];fontSize=14;" vertex="1" connectable="0" parent="TnWBGNj776M6VLE6dhnm-80">
          <mxGeometry x="-0.5288" y="1" relative="1" as="geometry">
            <mxPoint x="16" as="offset" />
          </mxGeometry>
        </mxCell>
        <mxCell id="TnWBGNj776M6VLE6dhnm-85" value="line[I] == &#39;\0&#39;" style="rhombus;whiteSpace=wrap;html=1;fontSize=14;" vertex="1" parent="TnWBGNj776M6VLE6dhnm-119">
          <mxGeometry y="395" width="159.5" height="90" as="geometry" />
        </mxCell>
        <mxCell id="TnWBGNj776M6VLE6dhnm-94" value="" style="edgeStyle=orthogonalEdgeStyle;rounded=0;orthogonalLoop=1;jettySize=auto;html=1;fontSize=14;endArrow=classic;endFill=1;strokeColor=default;" edge="1" parent="TnWBGNj776M6VLE6dhnm-119" source="TnWBGNj776M6VLE6dhnm-77" target="TnWBGNj776M6VLE6dhnm-85">
          <mxGeometry relative="1" as="geometry" />
        </mxCell>
        <mxCell id="TnWBGNj776M6VLE6dhnm-86" value="종료" style="ellipse;whiteSpace=wrap;html=1;fontSize=14;" vertex="1" parent="TnWBGNj776M6VLE6dhnm-119">
          <mxGeometry x="232.75" y="400" width="120" height="80" as="geometry" />
        </mxCell>
        <mxCell id="TnWBGNj776M6VLE6dhnm-117" style="edgeStyle=orthogonalEdgeStyle;rounded=0;orthogonalLoop=1;jettySize=auto;html=1;exitX=1;exitY=0.5;exitDx=0;exitDy=0;fontSize=14;endArrow=classic;endFill=1;strokeColor=default;" edge="1" parent="TnWBGNj776M6VLE6dhnm-119" source="TnWBGNj776M6VLE6dhnm-75" target="TnWBGNj776M6VLE6dhnm-86">
          <mxGeometry relative="1" as="geometry" />
        </mxCell>
        <mxCell id="TnWBGNj776M6VLE6dhnm-118" value="YES" style="edgeLabel;html=1;align=center;verticalAlign=middle;resizable=0;points=[];fontSize=14;" vertex="1" connectable="0" parent="TnWBGNj776M6VLE6dhnm-117">
          <mxGeometry x="-0.0713" y="3" relative="1" as="geometry">
            <mxPoint x="-4" y="1" as="offset" />
          </mxGeometry>
        </mxCell>
        <mxCell id="TnWBGNj776M6VLE6dhnm-87" value="" style="edgeStyle=orthogonalEdgeStyle;rounded=0;orthogonalLoop=1;jettySize=auto;html=1;fontSize=14;endArrow=classic;endFill=1;strokeColor=default;" edge="1" parent="TnWBGNj776M6VLE6dhnm-119" source="TnWBGNj776M6VLE6dhnm-85" target="TnWBGNj776M6VLE6dhnm-86">
          <mxGeometry relative="1" as="geometry" />
        </mxCell>
        <mxCell id="TnWBGNj776M6VLE6dhnm-88" value="YES" style="edgeLabel;html=1;align=center;verticalAlign=middle;resizable=0;points=[];fontSize=14;" vertex="1" connectable="0" parent="TnWBGNj776M6VLE6dhnm-87">
          <mxGeometry x="-0.3943" y="2" relative="1" as="geometry">
            <mxPoint x="9" as="offset" />
          </mxGeometry>
        </mxCell>
        <mxCell id="TnWBGNj776M6VLE6dhnm-90" style="edgeStyle=orthogonalEdgeStyle;rounded=0;orthogonalLoop=1;jettySize=auto;html=1;exitX=1;exitY=0.5;exitDx=0;exitDy=0;entryX=0.5;entryY=1;entryDx=0;entryDy=0;fontSize=14;endArrow=classic;endFill=1;strokeColor=default;" edge="1" parent="TnWBGNj776M6VLE6dhnm-119" source="TnWBGNj776M6VLE6dhnm-89" target="TnWBGNj776M6VLE6dhnm-86">
          <mxGeometry relative="1" as="geometry" />
        </mxCell>
        <mxCell id="TnWBGNj776M6VLE6dhnm-92" value="YES" style="edgeLabel;html=1;align=center;verticalAlign=middle;resizable=0;points=[];fontSize=14;" vertex="1" connectable="0" parent="TnWBGNj776M6VLE6dhnm-90">
          <mxGeometry x="-0.1149" y="2" relative="1" as="geometry">
            <mxPoint as="offset" />
          </mxGeometry>
        </mxCell>
        <mxCell id="TnWBGNj776M6VLE6dhnm-89" value="; , \&amp;nbsp;" style="rhombus;whiteSpace=wrap;html=1;fontSize=14;" vertex="1" parent="TnWBGNj776M6VLE6dhnm-119">
          <mxGeometry y="530" width="159.5" height="90" as="geometry" />
        </mxCell>
        <mxCell id="TnWBGNj776M6VLE6dhnm-95" value="" style="edgeStyle=orthogonalEdgeStyle;rounded=0;orthogonalLoop=1;jettySize=auto;html=1;fontSize=14;endArrow=classic;endFill=1;strokeColor=default;" edge="1" parent="TnWBGNj776M6VLE6dhnm-119" source="TnWBGNj776M6VLE6dhnm-85" target="TnWBGNj776M6VLE6dhnm-89">
          <mxGeometry relative="1" as="geometry" />
        </mxCell>
        <mxCell id="TnWBGNj776M6VLE6dhnm-97" value="&#39;, &quot;" style="rhombus;whiteSpace=wrap;html=1;fontSize=14;" vertex="1" parent="TnWBGNj776M6VLE6dhnm-119">
          <mxGeometry y="670" width="159.5" height="90" as="geometry" />
        </mxCell>
        <mxCell id="TnWBGNj776M6VLE6dhnm-98" value="" style="edgeStyle=orthogonalEdgeStyle;rounded=0;orthogonalLoop=1;jettySize=auto;html=1;fontSize=14;endArrow=classic;endFill=1;strokeColor=default;" edge="1" parent="TnWBGNj776M6VLE6dhnm-119" source="TnWBGNj776M6VLE6dhnm-89" target="TnWBGNj776M6VLE6dhnm-97">
          <mxGeometry relative="1" as="geometry" />
        </mxCell>
        <mxCell id="TnWBGNj776M6VLE6dhnm-105" value="NO" style="edgeLabel;html=1;align=center;verticalAlign=middle;resizable=0;points=[];fontSize=14;" vertex="1" connectable="0" parent="TnWBGNj776M6VLE6dhnm-98">
          <mxGeometry x="-0.3867" y="-2" relative="1" as="geometry">
            <mxPoint y="6" as="offset" />
          </mxGeometry>
        </mxCell>
        <mxCell id="TnWBGNj776M6VLE6dhnm-100" value="&amp;lt;, &amp;gt;, |" style="rhombus;whiteSpace=wrap;html=1;fontSize=14;" vertex="1" parent="TnWBGNj776M6VLE6dhnm-119">
          <mxGeometry y="800" width="159.5" height="90" as="geometry" />
        </mxCell>
        <mxCell id="TnWBGNj776M6VLE6dhnm-101" value="" style="edgeStyle=orthogonalEdgeStyle;rounded=0;orthogonalLoop=1;jettySize=auto;html=1;fontSize=14;endArrow=classic;endFill=1;strokeColor=default;" edge="1" parent="TnWBGNj776M6VLE6dhnm-119" source="TnWBGNj776M6VLE6dhnm-97" target="TnWBGNj776M6VLE6dhnm-100">
          <mxGeometry relative="1" as="geometry" />
        </mxCell>
        <mxCell id="TnWBGNj776M6VLE6dhnm-106" value="NO" style="edgeLabel;html=1;align=center;verticalAlign=middle;resizable=0;points=[];fontSize=14;" vertex="1" connectable="0" parent="TnWBGNj776M6VLE6dhnm-101">
          <mxGeometry x="0.1048" y="3" relative="1" as="geometry">
            <mxPoint as="offset" />
          </mxGeometry>
        </mxCell>
        <mxCell id="TnWBGNj776M6VLE6dhnm-102" value="같은 모양이 나오기 전까지 문자열을 리스트에 추가" style="rounded=1;whiteSpace=wrap;html=1;fontSize=14;" vertex="1" parent="TnWBGNj776M6VLE6dhnm-119">
          <mxGeometry x="219.13" y="685" width="147.25" height="60" as="geometry" />
        </mxCell>
        <mxCell id="TnWBGNj776M6VLE6dhnm-103" value="" style="edgeStyle=orthogonalEdgeStyle;rounded=0;orthogonalLoop=1;jettySize=auto;html=1;fontSize=14;endArrow=classic;endFill=1;strokeColor=default;" edge="1" parent="TnWBGNj776M6VLE6dhnm-119" source="TnWBGNj776M6VLE6dhnm-97" target="TnWBGNj776M6VLE6dhnm-102">
          <mxGeometry relative="1" as="geometry" />
        </mxCell>
        <mxCell id="TnWBGNj776M6VLE6dhnm-104" value="YES" style="edgeLabel;html=1;align=center;verticalAlign=middle;resizable=0;points=[];fontSize=14;" vertex="1" connectable="0" parent="TnWBGNj776M6VLE6dhnm-103">
          <mxGeometry x="-0.2547" y="-1" relative="1" as="geometry">
            <mxPoint as="offset" />
          </mxGeometry>
        </mxCell>
        <mxCell id="TnWBGNj776M6VLE6dhnm-107" value="&amp;lt;, &amp;gt;, |, &amp;lt;&amp;lt;, &amp;gt;&amp;gt;&amp;nbsp;&lt;br&gt;리스트에 추가" style="rounded=0;whiteSpace=wrap;html=1;fontSize=14;" vertex="1" parent="TnWBGNj776M6VLE6dhnm-119">
          <mxGeometry x="232.75" y="815" width="120" height="60" as="geometry" />
        </mxCell>
        <mxCell id="TnWBGNj776M6VLE6dhnm-108" value="" style="edgeStyle=orthogonalEdgeStyle;rounded=0;orthogonalLoop=1;jettySize=auto;html=1;fontSize=14;endArrow=classic;endFill=1;strokeColor=default;" edge="1" parent="TnWBGNj776M6VLE6dhnm-119" source="TnWBGNj776M6VLE6dhnm-100" target="TnWBGNj776M6VLE6dhnm-107">
          <mxGeometry relative="1" as="geometry" />
        </mxCell>
        <mxCell id="TnWBGNj776M6VLE6dhnm-109" value="YES" style="edgeLabel;html=1;align=center;verticalAlign=middle;resizable=0;points=[];fontSize=14;" vertex="1" connectable="0" parent="TnWBGNj776M6VLE6dhnm-108">
          <mxGeometry x="-0.1832" y="3" relative="1" as="geometry">
            <mxPoint as="offset" />
          </mxGeometry>
        </mxCell>
        <mxCell id="TnWBGNj776M6VLE6dhnm-110" value="공백, \, ;, &quot;, &#39;, &amp;lt;, &amp;gt;, |&lt;br&gt;전까지&amp;nbsp;리스트에 추가" style="rounded=1;whiteSpace=wrap;html=1;fontSize=14;" vertex="1" parent="TnWBGNj776M6VLE6dhnm-119">
          <mxGeometry x="9.63" y="940" width="140.25" height="60" as="geometry" />
        </mxCell>
        <mxCell id="TnWBGNj776M6VLE6dhnm-111" value="" style="edgeStyle=orthogonalEdgeStyle;rounded=0;orthogonalLoop=1;jettySize=auto;html=1;fontSize=14;endArrow=classic;endFill=1;strokeColor=default;" edge="1" parent="TnWBGNj776M6VLE6dhnm-119" source="TnWBGNj776M6VLE6dhnm-100" target="TnWBGNj776M6VLE6dhnm-110">
          <mxGeometry relative="1" as="geometry" />
        </mxCell>
        <mxCell id="TnWBGNj776M6VLE6dhnm-115" style="edgeStyle=orthogonalEdgeStyle;rounded=0;orthogonalLoop=1;jettySize=auto;html=1;exitX=0.5;exitY=1;exitDx=0;exitDy=0;entryX=0;entryY=0.5;entryDx=0;entryDy=0;fontSize=14;endArrow=classic;endFill=1;strokeColor=default;" edge="1" parent="TnWBGNj776M6VLE6dhnm-119" source="TnWBGNj776M6VLE6dhnm-112" target="TnWBGNj776M6VLE6dhnm-75">
          <mxGeometry relative="1" as="geometry" />
        </mxCell>
        <mxCell id="TnWBGNj776M6VLE6dhnm-112" value="공백 확인" style="rounded=1;whiteSpace=wrap;html=1;fontSize=14;" vertex="1" parent="TnWBGNj776M6VLE6dhnm-119">
          <mxGeometry x="19.75" y="1050" width="120" height="60" as="geometry" />
        </mxCell>
        <mxCell id="TnWBGNj776M6VLE6dhnm-114" style="edgeStyle=orthogonalEdgeStyle;rounded=0;orthogonalLoop=1;jettySize=auto;html=1;exitX=0.5;exitY=1;exitDx=0;exitDy=0;entryX=1;entryY=0.5;entryDx=0;entryDy=0;fontSize=14;endArrow=classic;endFill=1;strokeColor=default;" edge="1" parent="TnWBGNj776M6VLE6dhnm-119" source="TnWBGNj776M6VLE6dhnm-107" target="TnWBGNj776M6VLE6dhnm-112">
          <mxGeometry relative="1" as="geometry" />
        </mxCell>
        <mxCell id="TnWBGNj776M6VLE6dhnm-113" value="" style="edgeStyle=orthogonalEdgeStyle;rounded=0;orthogonalLoop=1;jettySize=auto;html=1;fontSize=14;endArrow=classic;endFill=1;strokeColor=default;" edge="1" parent="TnWBGNj776M6VLE6dhnm-119" source="TnWBGNj776M6VLE6dhnm-110" target="TnWBGNj776M6VLE6dhnm-112">
          <mxGeometry relative="1" as="geometry" />
        </mxCell>
        <mxCell id="TnWBGNj776M6VLE6dhnm-136" value="" style="group" vertex="1" connectable="0" parent="TnWBGNj776M6VLE6dhnm-155">
          <mxGeometry x="626" y="130" width="120" height="440" as="geometry" />
        </mxCell>
        <mxCell id="TnWBGNj776M6VLE6dhnm-124" value="토큰화2" style="rounded=1;whiteSpace=wrap;html=1;fontSize=14;" vertex="1" parent="TnWBGNj776M6VLE6dhnm-136">
          <mxGeometry width="120" height="60" as="geometry" />
        </mxCell>
        <mxCell id="TnWBGNj776M6VLE6dhnm-130" value="FILE, DIR, BUITLIN, COMMAND 체크&amp;nbsp;" style="rounded=1;whiteSpace=wrap;html=1;fontSize=14;" vertex="1" parent="TnWBGNj776M6VLE6dhnm-136">
          <mxGeometry y="120" width="120" height="60" as="geometry" />
        </mxCell>
        <mxCell id="TnWBGNj776M6VLE6dhnm-133" value="" style="edgeStyle=orthogonalEdgeStyle;rounded=0;orthogonalLoop=1;jettySize=auto;html=1;fontSize=14;endArrow=classic;endFill=1;strokeColor=default;" edge="1" parent="TnWBGNj776M6VLE6dhnm-136" source="TnWBGNj776M6VLE6dhnm-124" target="TnWBGNj776M6VLE6dhnm-130">
          <mxGeometry relative="1" as="geometry" />
        </mxCell>
        <mxCell id="TnWBGNj776M6VLE6dhnm-131" value="COMMAND, BUILTIN 체크" style="rounded=1;whiteSpace=wrap;html=1;fontSize=14;" vertex="1" parent="TnWBGNj776M6VLE6dhnm-136">
          <mxGeometry y="240" width="120" height="60" as="geometry" />
        </mxCell>
        <mxCell id="TnWBGNj776M6VLE6dhnm-134" value="" style="edgeStyle=orthogonalEdgeStyle;rounded=0;orthogonalLoop=1;jettySize=auto;html=1;fontSize=14;endArrow=classic;endFill=1;strokeColor=default;" edge="1" parent="TnWBGNj776M6VLE6dhnm-136" source="TnWBGNj776M6VLE6dhnm-130" target="TnWBGNj776M6VLE6dhnm-131">
          <mxGeometry relative="1" as="geometry" />
        </mxCell>
        <mxCell id="TnWBGNj776M6VLE6dhnm-132" value="COMMAND, BUILTIN 갯수 체크" style="rounded=1;whiteSpace=wrap;html=1;fontSize=14;" vertex="1" parent="TnWBGNj776M6VLE6dhnm-136">
          <mxGeometry y="360" width="120" height="60" as="geometry" />
        </mxCell>
        <mxCell id="TnWBGNj776M6VLE6dhnm-135" value="" style="edgeStyle=orthogonalEdgeStyle;rounded=0;orthogonalLoop=1;jettySize=auto;html=1;fontSize=14;endArrow=classic;endFill=1;strokeColor=default;" edge="1" parent="TnWBGNj776M6VLE6dhnm-136" source="TnWBGNj776M6VLE6dhnm-131" target="TnWBGNj776M6VLE6dhnm-132">
          <mxGeometry relative="1" as="geometry" />
        </mxCell>
        <mxCell id="TnWBGNj776M6VLE6dhnm-143" value="" style="group" vertex="1" connectable="0" parent="TnWBGNj776M6VLE6dhnm-155">
          <mxGeometry x="840" y="128" width="120" height="300" as="geometry" />
        </mxCell>
        <mxCell id="TnWBGNj776M6VLE6dhnm-140" value="" style="group" vertex="1" connectable="0" parent="TnWBGNj776M6VLE6dhnm-143">
          <mxGeometry width="120" height="180" as="geometry" />
        </mxCell>
        <mxCell id="TnWBGNj776M6VLE6dhnm-137" value="토큰화3" style="rounded=1;whiteSpace=wrap;html=1;fontSize=14;" vertex="1" parent="TnWBGNj776M6VLE6dhnm-140">
          <mxGeometry width="120" height="60" as="geometry" />
        </mxCell>
        <mxCell id="TnWBGNj776M6VLE6dhnm-138" value="$ 체크" style="rounded=1;whiteSpace=wrap;html=1;fontSize=14;" vertex="1" parent="TnWBGNj776M6VLE6dhnm-140">
          <mxGeometry y="120" width="120" height="60" as="geometry" />
        </mxCell>
        <mxCell id="TnWBGNj776M6VLE6dhnm-139" value="" style="edgeStyle=orthogonalEdgeStyle;rounded=0;orthogonalLoop=1;jettySize=auto;html=1;fontSize=14;endArrow=classic;endFill=1;strokeColor=default;" edge="1" parent="TnWBGNj776M6VLE6dhnm-140" source="TnWBGNj776M6VLE6dhnm-137" target="TnWBGNj776M6VLE6dhnm-138">
          <mxGeometry relative="1" as="geometry" />
        </mxCell>
        <mxCell id="TnWBGNj776M6VLE6dhnm-141" value="$?, $환경변수 체크" style="rounded=1;whiteSpace=wrap;html=1;fontSize=14;" vertex="1" parent="TnWBGNj776M6VLE6dhnm-143">
          <mxGeometry y="240" width="120" height="60" as="geometry" />
        </mxCell>
        <mxCell id="TnWBGNj776M6VLE6dhnm-142" value="" style="edgeStyle=orthogonalEdgeStyle;rounded=0;orthogonalLoop=1;jettySize=auto;html=1;fontSize=14;endArrow=classic;endFill=1;strokeColor=default;" edge="1" parent="TnWBGNj776M6VLE6dhnm-143" source="TnWBGNj776M6VLE6dhnm-138" target="TnWBGNj776M6VLE6dhnm-141">
          <mxGeometry relative="1" as="geometry" />
        </mxCell>
        <mxCell id="TnWBGNj776M6VLE6dhnm-148" value="" style="group" vertex="1" connectable="0" parent="TnWBGNj776M6VLE6dhnm-155">
          <mxGeometry width="960" height="60" as="geometry" />
        </mxCell>
        <mxCell id="TnWBGNj776M6VLE6dhnm-66" value="토큰화" style="rounded=1;whiteSpace=wrap;html=1;fontSize=14;" vertex="1" parent="TnWBGNj776M6VLE6dhnm-148">
          <mxGeometry width="120" height="60" as="geometry" />
        </mxCell>
        <mxCell id="TnWBGNj776M6VLE6dhnm-68" value="토큰화1" style="rounded=1;whiteSpace=wrap;html=1;fontSize=14;" vertex="1" parent="TnWBGNj776M6VLE6dhnm-148">
          <mxGeometry x="206" width="120" height="60" as="geometry" />
        </mxCell>
        <mxCell id="TnWBGNj776M6VLE6dhnm-144" value="" style="edgeStyle=orthogonalEdgeStyle;rounded=0;orthogonalLoop=1;jettySize=auto;html=1;fontSize=14;endArrow=classic;endFill=1;strokeColor=default;" edge="1" parent="TnWBGNj776M6VLE6dhnm-148" source="TnWBGNj776M6VLE6dhnm-66" target="TnWBGNj776M6VLE6dhnm-68">
          <mxGeometry relative="1" as="geometry" />
        </mxCell>
        <mxCell id="TnWBGNj776M6VLE6dhnm-69" value="토큰화2" style="rounded=1;whiteSpace=wrap;html=1;fontSize=14;" vertex="1" parent="TnWBGNj776M6VLE6dhnm-148">
          <mxGeometry x="626" width="120" height="60" as="geometry" />
        </mxCell>
        <mxCell id="TnWBGNj776M6VLE6dhnm-70" value="토큰화3" style="rounded=1;whiteSpace=wrap;html=1;fontSize=14;" vertex="1" parent="TnWBGNj776M6VLE6dhnm-148">
          <mxGeometry x="840" width="120" height="60" as="geometry" />
        </mxCell>
        <mxCell id="TnWBGNj776M6VLE6dhnm-147" value="" style="edgeStyle=orthogonalEdgeStyle;rounded=0;orthogonalLoop=1;jettySize=auto;html=1;fontSize=14;endArrow=classic;endFill=1;strokeColor=default;" edge="1" parent="TnWBGNj776M6VLE6dhnm-148" source="TnWBGNj776M6VLE6dhnm-69" target="TnWBGNj776M6VLE6dhnm-70">
          <mxGeometry relative="1" as="geometry" />
        </mxCell>
        <mxCell id="TnWBGNj776M6VLE6dhnm-146" value="" style="edgeStyle=orthogonalEdgeStyle;rounded=0;orthogonalLoop=1;jettySize=auto;html=1;fontSize=14;endArrow=classic;endFill=1;strokeColor=default;" edge="1" parent="TnWBGNj776M6VLE6dhnm-148" source="TnWBGNj776M6VLE6dhnm-121" target="TnWBGNj776M6VLE6dhnm-69">
          <mxGeometry relative="1" as="geometry" />
        </mxCell>
        <mxCell id="TnWBGNj776M6VLE6dhnm-121" value="예외 처리" style="rounded=1;whiteSpace=wrap;html=1;fontSize=14;" vertex="1" parent="TnWBGNj776M6VLE6dhnm-148">
          <mxGeometry x="416" width="120" height="60" as="geometry" />
        </mxCell>
        <mxCell id="TnWBGNj776M6VLE6dhnm-145" value="" style="edgeStyle=orthogonalEdgeStyle;rounded=0;orthogonalLoop=1;jettySize=auto;html=1;fontSize=14;endArrow=classic;endFill=1;strokeColor=default;" edge="1" parent="TnWBGNj776M6VLE6dhnm-148" source="TnWBGNj776M6VLE6dhnm-68" target="TnWBGNj776M6VLE6dhnm-121">
          <mxGeometry relative="1" as="geometry" />
        </mxCell>
        <mxCell id="TnWBGNj776M6VLE6dhnm-151" value="" style="edgeStyle=orthogonalEdgeStyle;rounded=0;orthogonalLoop=1;jettySize=auto;html=1;fontSize=14;endArrow=classic;endFill=1;strokeColor=default;" edge="1" parent="TnWBGNj776M6VLE6dhnm-155" source="TnWBGNj776M6VLE6dhnm-68" target="TnWBGNj776M6VLE6dhnm-74">
          <mxGeometry relative="1" as="geometry" />
        </mxCell>
        <mxCell id="TnWBGNj776M6VLE6dhnm-152" value="" style="edgeStyle=orthogonalEdgeStyle;rounded=0;orthogonalLoop=1;jettySize=auto;html=1;fontSize=14;endArrow=classic;endFill=1;strokeColor=default;" edge="1" parent="TnWBGNj776M6VLE6dhnm-155" source="TnWBGNj776M6VLE6dhnm-69" target="TnWBGNj776M6VLE6dhnm-124">
          <mxGeometry relative="1" as="geometry" />
        </mxCell>
        <mxCell id="TnWBGNj776M6VLE6dhnm-153" value="" style="edgeStyle=orthogonalEdgeStyle;rounded=0;orthogonalLoop=1;jettySize=auto;html=1;fontSize=14;endArrow=classic;endFill=1;strokeColor=default;" edge="1" parent="TnWBGNj776M6VLE6dhnm-155" source="TnWBGNj776M6VLE6dhnm-70" target="TnWBGNj776M6VLE6dhnm-137">
          <mxGeometry relative="1" as="geometry" />
        </mxCell>
        <mxCell id="TnWBGNj776M6VLE6dhnm-156" value="" style="group" vertex="1" connectable="0" parent="1">
          <mxGeometry x="280" y="10" width="180" height="1150" as="geometry" />
        </mxCell>
        <mxCell id="AYXUDMK8WHhuibapLCR6-1" value="start" style="ellipse;whiteSpace=wrap;html=1;" parent="TnWBGNj776M6VLE6dhnm-156" vertex="1">
          <mxGeometry x="70" width="100" height="40" as="geometry" />
        </mxCell>
        <mxCell id="AYXUDMK8WHhuibapLCR6-2" value="main" style="rounded=1;whiteSpace=wrap;html=1;fontSize=13;" parent="TnWBGNj776M6VLE6dhnm-156" vertex="1">
          <mxGeometry x="60" y="310" width="120" height="60" as="geometry" />
        </mxCell>
        <mxCell id="AYXUDMK8WHhuibapLCR6-3" value="env, export 생성" style="rounded=1;whiteSpace=wrap;html=1;fontSize=13;" parent="TnWBGNj776M6VLE6dhnm-156" vertex="1">
          <mxGeometry x="60" y="90" width="120" height="60" as="geometry" />
        </mxCell>
        <mxCell id="AYXUDMK8WHhuibapLCR6-4" value="" style="edgeStyle=orthogonalEdgeStyle;rounded=0;orthogonalLoop=1;jettySize=auto;html=1;fontSize=13;" parent="TnWBGNj776M6VLE6dhnm-156" source="AYXUDMK8WHhuibapLCR6-1" target="AYXUDMK8WHhuibapLCR6-3" edge="1">
          <mxGeometry relative="1" as="geometry" />
        </mxCell>
        <mxCell id="AYXUDMK8WHhuibapLCR6-7" value="" style="edgeStyle=orthogonalEdgeStyle;rounded=0;orthogonalLoop=1;jettySize=auto;html=1;fontSize=13;" parent="TnWBGNj776M6VLE6dhnm-156" source="AYXUDMK8WHhuibapLCR6-5" target="AYXUDMK8WHhuibapLCR6-2" edge="1">
          <mxGeometry relative="1" as="geometry" />
        </mxCell>
        <mxCell id="AYXUDMK8WHhuibapLCR6-5" value="$SHLVL 초기화" style="rounded=1;whiteSpace=wrap;html=1;fontSize=13;" parent="TnWBGNj776M6VLE6dhnm-156" vertex="1">
          <mxGeometry x="60" y="190" width="120" height="60" as="geometry" />
        </mxCell>
        <mxCell id="AYXUDMK8WHhuibapLCR6-6" value="" style="edgeStyle=orthogonalEdgeStyle;rounded=0;orthogonalLoop=1;jettySize=auto;html=1;fontSize=13;" parent="TnWBGNj776M6VLE6dhnm-156" source="AYXUDMK8WHhuibapLCR6-3" target="AYXUDMK8WHhuibapLCR6-5" edge="1">
          <mxGeometry relative="1" as="geometry" />
        </mxCell>
        <mxCell id="AYXUDMK8WHhuibapLCR6-8" value="readline()" style="rounded=1;whiteSpace=wrap;html=1;fontSize=13;" parent="TnWBGNj776M6VLE6dhnm-156" vertex="1">
          <mxGeometry x="60" y="410" width="120" height="60" as="geometry" />
        </mxCell>
        <mxCell id="AYXUDMK8WHhuibapLCR6-10" value="" style="edgeStyle=orthogonalEdgeStyle;rounded=0;orthogonalLoop=1;jettySize=auto;html=1;fontSize=13;" parent="TnWBGNj776M6VLE6dhnm-156" source="AYXUDMK8WHhuibapLCR6-2" target="AYXUDMK8WHhuibapLCR6-8" edge="1">
          <mxGeometry relative="1" as="geometry" />
        </mxCell>
        <mxCell id="AYXUDMK8WHhuibapLCR6-9" value="히스토리 추가" style="rounded=1;whiteSpace=wrap;html=1;fontSize=13;" parent="TnWBGNj776M6VLE6dhnm-156" vertex="1">
          <mxGeometry x="60" y="515" width="120" height="60" as="geometry" />
        </mxCell>
        <mxCell id="AYXUDMK8WHhuibapLCR6-11" value="" style="edgeStyle=orthogonalEdgeStyle;rounded=0;orthogonalLoop=1;jettySize=auto;html=1;fontSize=13;" parent="TnWBGNj776M6VLE6dhnm-156" source="AYXUDMK8WHhuibapLCR6-8" target="AYXUDMK8WHhuibapLCR6-9" edge="1">
          <mxGeometry relative="1" as="geometry" />
        </mxCell>
        <mxCell id="AYXUDMK8WHhuibapLCR6-12" value="토큰화" style="rounded=1;whiteSpace=wrap;html=1;fontSize=13;" parent="TnWBGNj776M6VLE6dhnm-156" vertex="1">
          <mxGeometry x="60" y="630" width="120" height="60" as="geometry" />
        </mxCell>
        <mxCell id="AYXUDMK8WHhuibapLCR6-13" value="" style="edgeStyle=orthogonalEdgeStyle;rounded=0;orthogonalLoop=1;jettySize=auto;html=1;fontSize=13;fontColor=#FF3333;" parent="TnWBGNj776M6VLE6dhnm-156" source="AYXUDMK8WHhuibapLCR6-9" target="AYXUDMK8WHhuibapLCR6-12" edge="1">
          <mxGeometry relative="1" as="geometry" />
        </mxCell>
        <mxCell id="AYXUDMK8WHhuibapLCR6-14" value="execute()" style="rounded=1;whiteSpace=wrap;html=1;fontSize=13;fontColor=#FF3333;" parent="TnWBGNj776M6VLE6dhnm-156" vertex="1">
          <mxGeometry x="60" y="740" width="120" height="60" as="geometry" />
        </mxCell>
        <mxCell id="AYXUDMK8WHhuibapLCR6-15" value="" style="edgeStyle=orthogonalEdgeStyle;rounded=0;orthogonalLoop=1;jettySize=auto;html=1;fontSize=13;fontColor=#000000;" parent="TnWBGNj776M6VLE6dhnm-156" source="AYXUDMK8WHhuibapLCR6-12" target="AYXUDMK8WHhuibapLCR6-14" edge="1">
          <mxGeometry relative="1" as="geometry" />
        </mxCell>
        <mxCell id="AYXUDMK8WHhuibapLCR6-16" value="메모리 초기화" style="rounded=1;whiteSpace=wrap;html=1;fontSize=13;fontColor=#000000;" parent="TnWBGNj776M6VLE6dhnm-156" vertex="1">
          <mxGeometry x="60" y="850" width="120" height="60" as="geometry" />
        </mxCell>
        <mxCell id="AYXUDMK8WHhuibapLCR6-17" value="" style="edgeStyle=orthogonalEdgeStyle;rounded=0;orthogonalLoop=1;jettySize=auto;html=1;fontSize=13;fontColor=#000000;" parent="TnWBGNj776M6VLE6dhnm-156" source="AYXUDMK8WHhuibapLCR6-14" target="AYXUDMK8WHhuibapLCR6-16" edge="1">
          <mxGeometry relative="1" as="geometry" />
        </mxCell>
        <mxCell id="AYXUDMK8WHhuibapLCR6-22" style="edgeStyle=orthogonalEdgeStyle;rounded=0;orthogonalLoop=1;jettySize=auto;html=1;exitX=0;exitY=0.5;exitDx=0;exitDy=0;entryX=0;entryY=0.5;entryDx=0;entryDy=0;fontSize=13;fontColor=#000000;" parent="TnWBGNj776M6VLE6dhnm-156" source="AYXUDMK8WHhuibapLCR6-20" target="AYXUDMK8WHhuibapLCR6-2" edge="1">
          <mxGeometry relative="1" as="geometry">
            <Array as="points">
              <mxPoint y="990" />
              <mxPoint y="340" />
            </Array>
          </mxGeometry>
        </mxCell>
        <mxCell id="AYXUDMK8WHhuibapLCR6-25" value="YES" style="edgeLabel;html=1;align=center;verticalAlign=middle;resizable=0;points=[];fontSize=13;fontColor=#000000;" parent="AYXUDMK8WHhuibapLCR6-22" vertex="1" connectable="0">
          <mxGeometry x="-0.0437" y="2" relative="1" as="geometry">
            <mxPoint as="offset" />
          </mxGeometry>
        </mxCell>
        <mxCell id="AYXUDMK8WHhuibapLCR6-20" value="exit != true?" style="rhombus;whiteSpace=wrap;html=1;fontSize=13;fontColor=#000000;" parent="TnWBGNj776M6VLE6dhnm-156" vertex="1">
          <mxGeometry x="65" y="950" width="110" height="80" as="geometry" />
        </mxCell>
        <mxCell id="AYXUDMK8WHhuibapLCR6-23" value="" style="edgeStyle=orthogonalEdgeStyle;rounded=0;orthogonalLoop=1;jettySize=auto;html=1;fontSize=13;fontColor=#000000;" parent="TnWBGNj776M6VLE6dhnm-156" source="AYXUDMK8WHhuibapLCR6-16" target="AYXUDMK8WHhuibapLCR6-20" edge="1">
          <mxGeometry relative="1" as="geometry" />
        </mxCell>
        <mxCell id="AYXUDMK8WHhuibapLCR6-27" value="종료" style="ellipse;whiteSpace=wrap;html=1;fontSize=13;fontColor=#000000;" parent="TnWBGNj776M6VLE6dhnm-156" vertex="1">
          <mxGeometry x="70" y="1080" width="100" height="70" as="geometry" />
        </mxCell>
        <mxCell id="AYXUDMK8WHhuibapLCR6-28" value="" style="edgeStyle=orthogonalEdgeStyle;rounded=0;orthogonalLoop=1;jettySize=auto;html=1;fontSize=13;fontColor=#000000;" parent="TnWBGNj776M6VLE6dhnm-156" source="AYXUDMK8WHhuibapLCR6-20" target="AYXUDMK8WHhuibapLCR6-27" edge="1">
          <mxGeometry relative="1" as="geometry" />
        </mxCell>
        <mxCell id="AYXUDMK8WHhuibapLCR6-31" value="NO" style="edgeLabel;html=1;align=center;verticalAlign=middle;resizable=0;points=[];fontSize=13;fontColor=#000000;" parent="AYXUDMK8WHhuibapLCR6-28" vertex="1" connectable="0">
          <mxGeometry x="-0.2566" relative="1" as="geometry">
            <mxPoint as="offset" />
          </mxGeometry>
        </mxCell>
      </root>
    </mxGraphModel>
  </diagram>
</mxfile>
